<svg data-v-423bf9ae="" xmlns="http://www.w3.org/2000/svg" viewBox="0 0 628.2565893934583 60" class="font"><!----><!----><!----><g data-v-423bf9ae="" id="891b0c12-5431-4a5e-a85f-a8ef450d589a" fill="black" transform="matrix(4.877738952636719,0,0,4.877738952636719,-6.687835216522217,-35.99237823486328)"><path d="M6.44 8.43L7.56 8.43L7.56 17.18L6.44 17.18L6.44 13.31L2.49 13.31L2.49 17.18L1.37 17.18L1.37 8.43L2.49 8.43L2.49 12.39L6.44 12.39L6.44 8.43ZM13.82 10.18L14.94 10.18L12.84 16.81L12.84 16.81Q12.50 17.89 12.14 18.49L12.14 18.49L12.14 18.49Q11.77 19.10 11.29 19.36L11.29 19.36L11.29 19.36Q10.81 19.61 10.09 19.61L10.09 19.61L10.09 19.61Q9.49 19.61 8.97 19.47L8.97 19.47L9.02 18.87L9.84 18.77L9.84 18.77Q10.42 18.69 10.72 18.55L10.72 18.55L10.72 18.55Q11.03 18.41 11.23 18.12L11.23 18.12L11.23 18.12Q11.42 17.84 11.59 17.29L11.59 17.29L11.73 16.81L11.13 16.81L9.03 10.18L10.15 10.18L11.91 15.88L12.05 15.88L13.82 10.18ZM19.57 10.05L19.57 10.05Q20.62 10.05 21.13 10.33L21.13 10.33L21.13 10.33Q21.63 10.61 21.81 11.36L21.81 11.36L21.81 11.36Q21.99 12.11 21.99 13.68L21.99 13.68L21.99 13.68Q21.99 15.26 21.80 16.03L21.80 16.03L21.80 16.03Q21.62 16.80 21.11 17.09L21.11 17.09L21.11 17.09Q20.61 17.39 19.57 17.39L19.57 17.39L19.57 17.39Q18.79 17.39 18.30 17.31L18.30 17.31L18.30 17.31Q17.81 17.23 17.51 17.02L17.51 17.02L17.51 19.53L16.39 19.68L16.39 10.18L16.88 10.18L17.16 10.75L17.16 10.75Q17.43 10.35 17.98 10.20L17.98 10.20L17.98 10.20Q18.54 10.05 19.57 10.05L19.57 10.05ZM20.83 16.09L20.83 11.00L18.17 11.00L18.17 11.00Q17.79 11.00 17.65 11.06L17.65 11.06L17.65 11.06Q17.51 11.12 17.51 11.27L17.51 11.27L17.51 16.44L20.16 16.44L20.16 16.44Q20.57 16.44 20.70 16.37L20.70 16.37L20.70 16.37Q20.83 16.30 20.83 16.09L20.83 16.09ZM26.60 16.38L26.60 16.38Q27.17 16.38 27.71 16.31L27.71 16.31L27.71 16.31Q28.24 16.24 29.01 16.06L29.01 16.06L29.16 16.90L29.16 16.90Q28.69 17.08 27.93 17.19L27.93 17.19L27.93 17.19Q27.17 17.30 26.36 17.30L26.36 17.30L26.36 17.30Q25.30 17.30 24.77 17.01L24.77 17.01L24.77 17.01Q24.25 16.72 24.04 15.95L24.04 15.95L24.04 15.95Q23.84 15.19 23.84 13.68L23.84 13.68L23.84 13.68Q23.84 12.24 24.09 11.47L24.09 11.47L24.09 11.47Q24.33 10.70 24.93 10.37L24.93 10.37L24.93 10.37Q25.52 10.05 26.64 10.05L26.64 10.05L26.64 10.05Q27.75 10.05 28.31 10.23L28.31 10.23L28.31 10.23Q28.88 10.40 29.11 10.83L29.11 10.83L29.11 10.83Q29.34 11.26 29.34 12.10L29.34 12.10L29.34 12.10Q29.34 13.16 29.07 13.59L29.07 13.59L29.07 13.59Q28.80 14.03 27.94 14.17L27.94 14.17L27.94 14.17Q27.09 14.31 25.00 14.31L25.00 14.31L25.00 16.21L25.00 16.21Q25.61 16.38 26.60 16.38L26.60 16.38ZM26.21 11.02L26.21 11.02Q25.51 11.02 25.26 11.20L25.26 11.20L25.26 11.20Q25.00 11.38 25.00 11.89L25.00 11.89L25.00 13.50L27.12 13.50L27.12 13.50Q27.83 13.50 28.08 13.31L28.08 13.31L28.08 13.31Q28.34 13.13 28.34 12.64L28.34 12.64L28.34 11.02L26.21 11.02ZM32.28 10.18L32.72 11.33L32.72 11.33Q33.39 10.74 33.83 10.42L33.83 10.42L33.83 10.42Q34.27 10.11 34.61 9.97L34.61 9.97L34.75 11.07L34.75 11.07Q34.27 11.23 33.77 11.49L33.77 11.49L33.77 11.49Q33.26 11.76 32.90 12.04L32.90 12.04L32.90 17.18L31.78 17.18L31.78 10.18L32.28 10.18ZM39.79 17.18L40.39 8.43L42.00 8.43L44.11 15.40L44.21 15.40L46.34 8.43L47.95 8.43L48.55 17.18L47.45 17.18L46.96 9.74L46.87 9.74L44.63 17.18L43.71 17.18L41.47 9.74L41.38 9.74L40.89 17.18L39.79 17.18ZM53.54 17.30L53.54 17.30Q52.29 17.30 51.69 17.02L51.69 17.02L51.69 17.02Q51.09 16.73 50.86 15.98L50.86 15.98L50.86 15.98Q50.64 15.23 50.64 13.68L50.64 13.68L50.64 13.68Q50.64 12.12 50.86 11.38L50.86 11.38L50.86 11.38Q51.09 10.63 51.69 10.34L51.69 10.34L51.69 10.34Q52.29 10.05 53.54 10.05L53.54 10.05L53.54 10.05Q54.80 10.05 55.40 10.33L55.40 10.33L55.40 10.33Q56.00 10.61 56.22 11.36L56.22 11.36L56.22 11.36Q56.45 12.11 56.45 13.68L56.45 13.68L56.45 13.68Q56.45 15.23 56.22 15.98L56.22 15.98L56.22 15.98Q56.00 16.73 55.39 17.02L55.39 17.02L55.39 17.02Q54.78 17.30 53.54 17.30L53.54 17.30ZM51.79 16.35L54.60 16.35L54.60 16.35Q55.02 16.35 55.16 16.28L55.16 16.28L55.16 16.28Q55.30 16.21 55.30 16.00L55.30 16.00L55.30 11.00L52.49 11.00L52.49 11.00Q52.07 11.00 51.93 11.07L51.93 11.07L51.93 11.07Q51.79 11.14 51.79 11.35L51.79 11.35L51.79 16.35ZM62.78 7.83L63.90 7.67L63.90 17.18L63.41 17.18L63.14 16.63L63.14 16.63Q62.87 17.07 62.36 17.23L62.36 17.23L62.36 17.23Q61.84 17.39 60.89 17.39L60.89 17.39L60.89 17.39Q59.75 17.39 59.22 17.12L59.22 17.12L59.22 17.12Q58.69 16.84 58.49 16.08L58.49 16.08L58.49 16.08Q58.30 15.32 58.30 13.68L58.30 13.68L58.30 13.68Q58.30 12.14 58.49 11.39L58.49 11.39L58.49 11.39Q58.67 10.64 59.16 10.35L59.16 10.35L59.16 10.35Q59.65 10.05 60.66 10.05L60.66 10.05L60.66 10.05Q61.46 10.05 61.96 10.14L61.96 10.14L61.96 10.14Q62.47 10.22 62.78 10.42L62.78 10.42L62.78 7.83ZM62.78 16.09L62.78 11.00L60.12 11.00L60.12 11.00Q59.72 11.00 59.59 11.07L59.59 11.07L59.59 11.07Q59.46 11.14 59.46 11.35L59.46 11.35L59.46 16.44L62.10 16.44L62.10 16.44Q62.51 16.44 62.64 16.37L62.64 16.37L62.64 16.37Q62.78 16.30 62.78 16.09L62.78 16.09ZM71.90 10.18L71.90 17.18L71.41 17.18L71.11 16.48L71.11 16.48Q70.56 16.91 69.89 17.11L69.89 17.11L69.89 17.11Q69.23 17.30 68.36 17.30L68.36 17.30L68.36 17.30Q67.44 17.30 67.00 16.98L67.00 16.98L67.00 16.98Q66.57 16.65 66.57 15.95L66.57 15.95L66.57 10.18L67.69 10.18L67.69 16.39L69.47 16.39L69.47 16.39Q70.24 16.39 70.51 16.21L70.51 16.21L70.51 16.21Q70.78 16.03 70.78 15.50L70.78 15.50L70.78 10.18L71.90 10.18ZM75.68 16.34L76.31 16.39L76.24 17.16L76.24 17.16Q75.82 17.30 75.45 17.30L75.45 17.30L75.45 17.30Q74.56 17.30 74.56 16.35L74.56 16.35L74.56 8.08L75.68 7.87L75.68 16.34ZM80.78 10.05L80.78 10.05Q81.72 10.05 82.24 10.23L82.24 10.23L82.24 10.23Q82.77 10.40 83.00 10.81L83.00 10.81L83.00 10.81Q83.23 11.21 83.23 11.91L83.23 11.91L83.23 17.18L82.74 17.18L82.42 16.48L82.42 16.48Q81.93 16.91 81.31 17.11L81.31 17.11L81.31 17.11Q80.70 17.30 79.90 17.30L79.90 17.30L79.90 17.30Q78.76 17.30 78.29 16.84L78.29 16.84L78.29 16.84Q77.81 16.37 77.81 15.26L77.81 15.26L77.81 15.26Q77.81 14.20 78.08 13.76L78.08 13.76L78.08 13.76Q78.34 13.33 79.16 13.19L79.16 13.19L79.16 13.19Q79.97 13.05 81.94 13.05L81.94 13.05L82.11 13.05L82.11 11.14L82.11 11.14Q81.55 10.98 80.56 10.98L80.56 10.98L80.56 10.98Q79.48 10.98 78.27 11.30L78.27 11.30L78.12 10.46L78.12 10.46Q78.57 10.28 79.32 10.16L79.32 10.16L79.32 10.16Q80.08 10.05 80.78 10.05L80.78 10.05ZM80.96 16.39L80.96 16.39Q81.63 16.39 81.87 16.21L81.87 16.21L81.87 16.21Q82.11 16.03 82.11 15.53L82.11 15.53L82.11 13.86L80.00 13.86L80.00 13.86Q79.31 13.86 79.06 14.04L79.06 14.04L79.06 14.04Q78.82 14.22 78.82 14.71L78.82 14.71L78.82 16.39L80.96 16.39ZM86.41 10.18L86.84 11.33L86.84 11.33Q87.51 10.74 87.95 10.42L87.95 10.42L87.95 10.42Q88.40 10.11 88.73 9.97L88.73 9.97L88.87 11.07L88.87 11.07Q88.40 11.23 87.89 11.49L87.89 11.49L87.89 11.49Q87.39 11.76 87.02 12.04L87.02 12.04L87.02 17.18L85.90 17.18L85.90 10.18L86.41 10.18ZM90.31 17.18L90.31 17.18ZM90.48 10.22L91.60 10.04L91.60 17.18L90.48 17.18L90.48 10.22ZM91.06 8.83L91.06 8.83Q90.62 8.83 90.47 8.69L90.47 8.69L90.47 8.69Q90.31 8.54 90.31 8.12L90.31 8.12L90.31 8.12Q90.31 7.69 90.47 7.53L90.47 7.53L90.47 7.53Q90.62 7.38 91.06 7.38L91.06 7.38L91.06 7.38Q91.48 7.38 91.62 7.53L91.62 7.53L91.62 7.53Q91.77 7.69 91.77 8.12L91.77 8.12L91.77 8.12Q91.77 8.54 91.63 8.69L91.63 8.69L91.63 8.69Q91.49 8.83 91.06 8.83L91.06 8.83ZM97.51 11.07L97.44 10.99L93.94 10.99L93.84 10.18L98.88 10.18L98.88 10.79L94.92 16.28L94.96 16.37L98.78 16.37L98.78 17.18L93.55 17.18L93.55 16.56L97.51 11.07ZM103.26 10.05L103.26 10.05Q104.20 10.05 104.73 10.23L104.73 10.23L104.73 10.23Q105.25 10.40 105.48 10.81L105.48 10.81L105.48 10.81Q105.71 11.21 105.71 11.91L105.71 11.91L105.71 17.18L105.22 17.18L104.90 16.48L104.90 16.48Q104.41 16.91 103.80 17.11L103.80 17.11L103.80 17.11Q103.18 17.30 102.38 17.30L102.38 17.30L102.38 17.30Q101.25 17.30 100.77 16.84L100.77 16.84L100.77 16.84Q100.30 16.37 100.30 15.26L100.30 15.26L100.30 15.26Q100.30 14.20 100.56 13.76L100.56 13.76L100.56 13.76Q100.83 13.33 101.64 13.19L101.64 13.19L101.64 13.19Q102.45 13.05 104.43 13.05L104.43 13.05L104.59 13.05L104.59 11.14L104.59 11.14Q104.03 10.98 103.04 10.98L103.04 10.98L103.04 10.98Q101.96 10.98 100.76 11.30L100.76 11.30L100.60 10.46L100.60 10.46Q101.05 10.28 101.81 10.16L101.81 10.16L101.81 10.16Q102.56 10.05 103.26 10.05L103.26 10.05ZM103.45 16.39L103.45 16.39Q104.12 16.39 104.36 16.21L104.36 16.21L104.36 16.21Q104.59 16.03 104.59 15.53L104.59 15.53L104.59 13.86L102.48 13.86L102.48 13.86Q101.79 13.86 101.55 14.04L101.55 14.04L101.55 14.04Q101.30 14.22 101.30 14.71L101.30 14.71L101.30 16.39L103.45 16.39ZM111.26 10.98L109.96 10.98L109.96 16.34L109.96 16.34Q110.85 16.39 110.98 16.39L110.98 16.39L110.91 17.16L110.91 17.16Q110.11 17.30 109.72 17.30L109.72 17.30L109.72 17.30Q108.84 17.30 108.84 16.35L108.84 16.35L108.84 10.98L107.80 10.98L107.80 10.18L108.84 10.18L108.84 8.61L109.96 8.33L109.96 10.18L111.26 10.18L111.26 10.98ZM113.15 17.18L113.15 17.18ZM113.32 10.22L114.44 10.04L114.44 17.18L113.32 17.18L113.32 10.22ZM113.89 8.83L113.89 8.83Q113.46 8.83 113.30 8.69L113.30 8.69L113.30 8.69Q113.15 8.54 113.15 8.12L113.15 8.12L113.15 8.12Q113.15 7.69 113.30 7.53L113.30 7.53L113.30 7.53Q113.46 7.38 113.89 7.38L113.89 7.38L113.89 7.38Q114.31 7.38 114.46 7.53L114.46 7.53L114.46 7.53Q114.60 7.69 114.60 8.12L114.60 8.12L114.60 8.12Q114.60 8.54 114.46 8.69L114.46 8.69L114.46 8.69Q114.32 8.83 113.89 8.83L113.89 8.83ZM119.63 17.30L119.63 17.30Q118.38 17.30 117.78 17.02L117.78 17.02L117.78 17.02Q117.18 16.73 116.96 15.98L116.96 15.98L116.96 15.98Q116.73 15.23 116.73 13.68L116.73 13.68L116.73 13.68Q116.73 12.12 116.96 11.38L116.96 11.38L116.96 11.38Q117.18 10.63 117.78 10.34L117.78 10.34L117.78 10.34Q118.38 10.05 119.63 10.05L119.63 10.05L119.63 10.05Q120.89 10.05 121.49 10.33L121.49 10.33L121.49 10.33Q122.09 10.61 122.32 11.36L122.32 11.36L122.32 11.36Q122.54 12.11 122.54 13.68L122.54 13.68L122.54 13.68Q122.54 15.23 122.32 15.98L122.32 15.98L122.32 15.98Q122.09 16.73 121.49 17.02L121.49 17.02L121.49 17.02Q120.88 17.30 119.63 17.30L119.63 17.30ZM117.88 16.35L120.69 16.35L120.69 16.35Q121.11 16.35 121.25 16.28L121.25 16.28L121.25 16.28Q121.39 16.21 121.39 16.00L121.39 16.00L121.39 11.00L118.58 11.00L118.58 11.00Q118.16 11.00 118.02 11.07L118.02 11.07L118.02 11.07Q117.88 11.14 117.88 11.35L117.88 11.35L117.88 16.35ZM124.84 17.18L124.84 10.18L125.33 10.18L125.65 10.88L125.65 10.88Q126.15 10.44 126.77 10.25L126.77 10.25L126.77 10.25Q127.39 10.05 128.21 10.05L128.21 10.05L128.21 10.05Q130.17 10.05 130.17 11.16L130.17 11.16L130.17 17.18L129.05 17.18L129.05 10.96L127.27 10.96L127.27 10.96Q126.50 10.96 126.23 11.15L126.23 11.15L126.23 11.15Q125.96 11.34 125.96 11.86L125.96 11.86L125.96 17.18L124.84 17.18Z"></path></g><!----><!----></svg>